<?xml version="1.0" standalone="no"?><!DOCTYPE svg PUBLIC "-//W3C//DTD SVG 1.1//EN" "http://www.w3.org/Graphics/SVG/1.1/DTD/svg11.dtd"><svg t="1663396908257" class="icon" viewBox="0 0 1024 1024" version="1.1" xmlns="http://www.w3.org/2000/svg" p-id="3118" xmlns:xlink="http://www.w3.org/1999/xlink" width="200" height="200"><path d="M106.666667 149.333333a42.666667 42.666667 0 0 0-42.666667 42.666667v640a42.666667 42.666667 0 0 0 42.666667 42.666667h810.666666a42.666667 42.666667 0 0 0 42.666667-42.666667V597.333333a42.666667 42.666667 0 0 0-42.666667-42.666666h-128a42.666667 42.666667 0 0 0-42.666666 42.666666v64h-469.333334v-298.666666h213.333334a42.666667 42.666667 0 0 0 42.666666-42.666667v-128a42.666667 42.666667 0 0 0-42.666666-42.666667h-384z m42.666666 640v-554.666666h298.666667v42.666666h-213.333333a42.666667 42.666667 0 0 0-42.666667 42.666667v384a42.666667 42.666667 0 0 0 42.666667 42.666667h554.666666a42.666667 42.666667 0 0 0 42.666667-42.666667V640h42.666667v149.333333h-725.333334z" p-id="3119"></path><path d="M618.666667 149.333333a42.666667 42.666667 0 0 0-42.666667 42.666667c0 96.682667 36.608 177.792 99.456 234.368C737.834667 482.56 823.210667 512 917.333333 512a42.666667 42.666667 0 0 0 42.666667-42.666667V341.333333a42.666667 42.666667 0 0 0-42.666667-42.666666c-57.429333 0-87.338667-14.336-103.168-30.165334-15.829333-15.829333-24.832-40.405333-24.832-76.501333a42.666667 42.666667 0 0 0-42.666666-42.666667h-128z m113.877333 213.632c-34.986667-31.488-59.52-74.538667-67.968-128.298666h42.837333c5.845333 34.56 19.797333 67.541333 46.421334 94.165333 29.568 29.568 70.314667 46.805333 120.832 52.778667v42.453333c-57.728-7.168-106.368-28.928-142.122667-61.098667z" p-id="3120"></path><path d="M664.576 234.666667c8.448 53.76 32.981333 96.810667 67.968 128.298666 35.754667 32.170667 84.394667 53.930667 142.122667 61.098667v-42.453333c-50.517333-5.973333-91.264-23.210667-120.832-52.778667-26.624-26.624-40.576-59.648-46.421334-94.165333h-42.837333zM149.333333 234.666667v554.666666h725.333334V640h-42.666667v64a42.666667 42.666667 0 0 1-42.666667 42.666667h-554.666666a42.666667 42.666667 0 0 1-42.666667-42.666667v-384a42.666667 42.666667 0 0 1 42.666667-42.666667h213.333333v-42.666666h-298.666667z" p-id="3121"></path></svg>